<?xml version="1.0" encoding="UTF-8"?>
<svg id="Calque_1" data-name="Calque 1" xmlns="http://www.w3.org/2000/svg" viewBox="0 0 512 512">
  <defs>
    <style>
      .cls-1 {
        fill: #f9e37f;
      }

      .cls-2 {
        fill: #9789c0;
      }
    </style>
  </defs>
  <path class="cls-2" d="M138.51,347.79c5.72,7.25,11.18,13.38,17.72,19.46,16.78,15.59,36.41,27.21,58.56,33.8,29.12,8.66,60.55,7.61,89.15-2.41,11.57-4.05,21.75-9.55,31.73-16.3,3.77-2.55,9.11-.88,11.39,2.5s1.74,8.74-1.99,11.5c-11.65,8.6-24.48,14.69-38.36,19.28-18.44,6.09-37.6,8.53-57.02,7.74-30.27-1.24-59.07-10.73-84.15-27.77-20.34-13.83-37.66-31.9-50.86-52.59-37.24-58.35-33.4-133.2,7.97-187.94,32.13-42.51,82.8-67.46,136.07-66.54,16.8.29,33.1,2.93,49.06,8.21,38.41,12.71,71.18,38.78,91.7,73.67,14.43,24.53,22.78,52.13,23.46,80.6.39,16.49-1.43,32.19-6.45,47.7-1.42,4.38-5.67,6.64-9.99,5.75-3.9-.8-7.63-4.86-6.35-9.42,3.24-11.55,5.35-22.88,5.72-35.05,1.22-40.33-14.02-79.92-42.18-108.88-10.83-11.14-23.05-20.24-36.63-27.74-21.19-11.69-44.66-17.58-68.85-18-48.31-.84-94.29,21.81-122.99,60.72-17.52,23.75-27.6,52.35-29.04,81.99-1.75,35.95,10,71.4,32.33,99.7Z"/>
  <g>
    <path class="cls-2" d="M324.3,224.36c.94,3.51.85,6.72-.29,10.09l-37.04,109.17c-4.63,13.64-17.33,20.65-30.89,20.97-13.65.32-25.67-5.57-31.85-18.04l-6.54-14.38-53.04-125.89c-2.95-7-1.49-14.93,2.72-20.83s10.52-9.38,18.37-9.43c8.17-.05,17.22,4.32,20.38,12.79l47.67,127.67,31.04-91.61c2.83-8.35,9.03-14.67,18.19-15.19,9.68-.9,18.7,5.01,21.3,14.68Z"/>
    <circle class="cls-1" cx="352.02" cy="332.1" r="26.78"/>
  </g>
</svg>