<?xml version="1.0" encoding="UTF-8"?>
<svg id="Calque_1" data-name="Calque 1" xmlns="http://www.w3.org/2000/svg" viewBox="34 182 434 150">
  <defs>
    <style>
      .cls-1 {
        fill: #f9e37f;
      }

      .cls-2 {
        fill: #9789c0;
      }
    </style>
  </defs>
  <path class="cls-2" d="M148.96,189.15c3.16.02,5.86,3.23,4.89,6.72l-32.39,115.94c-2.9,10.38-11.74,10.92-22.19,9.79-4.2-.45-7.64-3.37-8.99-7.36l-22.05-65.17-17.39-52.07c-.53-1.6-.28-3.95.5-5.25.68-1.15,2.79-2.52,4.44-2.56l8.65-.21c3.51-.09,6.46,1.73,7.88,5.03l17.9,53.48,15.69,46.93,27.02-100.13c.83-3.06,3.41-5.22,6.57-5.2l9.47.06Z"/>
  <path class="cls-2" d="M406.61,240.43l-.02,76.16c0,3.96-5.21,5.23-8.04,5.29-4.11.08-8.5-1.45-8.66-5.8l-.32-8.44c-6.4,10.71-17.14,16.05-29.45,15.32-9.39-.55-18.04-4.01-23.36-12.09-2.97-4.51-5.13-9.94-5.14-15.68l-.07-55.05c0-3.36,3.57-5.67,6.5-5.67h7.29c3.71,0,6.59,2.88,6.59,6.67l.1,49.46c.01,5.05,2.87,9.8,6.79,12.56,5.09,3.58,11.54,3.99,17.49,1.08,4.47-2.18,9.21-7.56,9.23-13.65l.16-49.89c.01-3.59,3.3-6.2,6.48-6.2l7.88-.02c2.93,0,6.53,2.14,6.52,5.96Z"/>
  <path class="cls-2" d="M232.52,240.66l-.02,76.39c-1.48,3.74-4.99,5.08-8.74,4.71-3.81.31-7.07-1.3-8.51-4.87l-.31-9.4c-5.94,10.14-15.83,15.62-27.45,15.51-9.24-.09-18.03-3.13-23.79-10.7-3.86-5.07-6.7-11.41-6.71-18.13l-.09-54.02c0-3.38,3.57-5.7,6.47-5.7h7.35c3.31.02,6.5,2.54,6.51,6.19l.19,49.88c.04,9.67,8.48,16.05,17.78,15.58,9.28-.47,17.23-7.42,17.26-17.01l.12-48.96c0-3.39,3.55-5.69,6.48-5.68h7.3c3.41.01,6.17,2.57,6.17,6.19Z"/>
  <path class="cls-2" d="M316.06,303.05c5.63.02,6.41,7.11,5.57,13.53-.37,2.82-3.07,5.11-6.04,5.1l-48.62-.21c-6.12-.03-11.44-5.35-11.44-11.58l-.09-114.63c0-3.68,3.28-6.25,6.54-6.22l8.76.09c3.21.03,6.02,2.73,6.03,6.17l.12,100.74c0,4.18,3.38,6.91,7.13,6.92l32.04.09Z"/>
  <ellipse class="cls-1" cx="443.63" cy="304.44" rx="17.81" ry="17.81"/>
</svg>